<svg xmlns="http://www.w3.org/2000/svg" xmlns:xlink="http://www.w3.org/1999/xlink" width="500" zoomAndPan="magnify" viewBox="0 0 375 374.999991" height="500" preserveAspectRatio="xMidYMid meet" version="1.0"><defs><g/><clipPath id="a3755e9415"><path d="M 1 12 L 47 12 L 47 60.695312 L 1 60.695312 Z M 1 12 " clip-rule="nonzero"/></clipPath><clipPath id="df8c6b626d"><path d="M 53 0.515625 L 85 0.515625 L 85 60.695312 L 53 60.695312 Z M 53 0.515625 " clip-rule="nonzero"/></clipPath><clipPath id="331ed3ee69"><path d="M 89 12 L 137 12 L 137 60.695312 L 89 60.695312 Z M 89 12 " clip-rule="nonzero"/></clipPath><clipPath id="b435faada5"><path d="M 216 12 L 262 12 L 262 60.695312 L 216 60.695312 Z M 216 12 " clip-rule="nonzero"/></clipPath><clipPath id="e538e65449"><rect x="0" width="360" y="0" height="153"/></clipPath></defs><rect x="-37.5" width="450" fill="#ffffff" y="-37.499999" height="449.999989" fill-opacity="1"/><rect x="-37.5" width="450" fill="#ffffff" y="-37.499999" height="449.999989" fill-opacity="1"/><g transform="matrix(1, 0, 0, 1, 9, 111)"><g clip-path="url(#e538e65449)"><g clip-path="url(#a3755e9415)"><path fill="#0f4018" d="M 21.765625 12.605469 C 24.148438 12.605469 26.558594 13.175781 29 14.320312 C 31.4375 15.464844 33.472656 16.996094 35.097656 18.921875 L 35.097656 13.777344 L 46.167969 13.777344 L 46.167969 59.339844 L 35.097656 59.339844 L 35.097656 51.671875 C 33.820312 54.136719 31.960938 56.273438 29.523438 58.078125 C 27.082031 59.820312 24.234375 60.695312 20.984375 60.695312 C 17.4375 60.695312 14.15625 59.761719 11.136719 57.898438 C 8.171875 56.03125 5.792969 53.328125 3.992188 49.777344 C 2.1875 46.230469 1.289062 41.929688 1.289062 36.875 C 1.289062 31.824219 2.1875 27.492188 3.992188 23.882812 C 5.847656 20.273438 8.316406 17.507812 11.398438 15.582031 C 14.535156 13.597656 17.992188 12.605469 21.765625 12.605469 Z M 24.03125 23.792969 C 21.707031 23.792969 19.703125 24.425781 18.019531 25.6875 C 16.394531 26.890625 15.117188 28.484375 14.1875 30.46875 C 13.257812 32.453125 12.792969 34.589844 12.792969 36.875 C 12.792969 40.304688 13.777344 43.222656 15.753906 45.628906 C 17.789062 48.03125 20.460938 49.234375 23.769531 49.234375 C 25.746094 49.234375 27.578125 48.695312 29.261719 47.613281 C 31.003906 46.53125 32.398438 45.027344 33.445312 43.101562 C 34.546875 41.117188 35.097656 38.742188 35.097656 35.972656 L 35.097656 29.476562 C 33.53125 27.734375 31.816406 26.351562 29.957031 25.328125 C 28.15625 24.304688 26.183594 23.792969 24.03125 23.792969 Z M 24.03125 23.792969 " fill-opacity="1" fill-rule="nonzero"/></g><g clip-path="url(#df8c6b626d)"><path fill="#0f4018" d="M 72.136719 0.515625 L 72.136719 13.777344 L 84.335938 13.777344 L 84.335938 23.34375 L 72.136719 23.34375 L 72.136719 43.011719 C 72.136719 45.054688 72.574219 46.679688 73.445312 47.882812 C 74.375 49.027344 75.738281 49.597656 77.539062 49.597656 C 79.109375 49.597656 80.445312 49.417969 81.546875 49.054688 C 82.710938 48.695312 83.785156 48.183594 84.773438 47.523438 L 84.773438 56.632812 C 83.667969 57.777344 82.273438 58.738281 80.589844 59.523438 C 78.964844 60.304688 76.902344 60.695312 74.402344 60.695312 C 70.453125 60.695312 67.230469 59.402344 64.730469 56.816406 C 62.289062 54.167969 61.070312 50.558594 61.070312 45.988281 L 61.070312 23.34375 L 53.140625 23.34375 L 53.140625 17.476562 C 55.929688 16.457031 58.484375 14.53125 60.808594 11.703125 C 63.191406 8.878906 65.078125 5.148438 66.472656 0.515625 Z M 72.136719 0.515625 " fill-opacity="1" fill-rule="nonzero"/></g><g clip-path="url(#331ed3ee69)"><path fill="#0f4018" d="M 112.574219 12.605469 C 116.871094 12.605469 120.792969 13.6875 124.335938 15.855469 C 127.882812 17.960938 130.726562 20.847656 132.878906 24.515625 C 135.085938 28.125 136.1875 32.183594 136.1875 36.695312 C 136.1875 41.207031 135.085938 45.265625 132.878906 48.875 C 130.726562 52.484375 127.882812 55.371094 124.335938 57.535156 C 120.792969 59.640625 116.871094 60.695312 112.574219 60.695312 C 108.332031 60.695312 104.410156 59.640625 100.808594 57.535156 C 97.265625 55.371094 94.417969 52.484375 92.269531 48.875 C 90.121094 45.265625 89.046875 41.207031 89.046875 36.695312 C 89.046875 32.183594 90.121094 28.125 92.269531 24.515625 C 94.417969 20.847656 97.265625 17.960938 100.808594 15.855469 C 104.410156 13.6875 108.332031 12.605469 112.574219 12.605469 Z M 112.574219 23.703125 C 110.484375 23.703125 108.535156 24.214844 106.734375 25.238281 C 104.933594 26.257812 103.480469 27.734375 102.378906 29.65625 C 101.332031 31.582031 100.808594 33.929688 100.808594 36.695312 C 100.808594 39.460938 101.332031 41.808594 102.378906 43.734375 C 103.480469 45.65625 104.933594 47.132812 106.734375 48.152344 C 108.535156 49.117188 110.484375 49.597656 112.574219 49.597656 C 114.664062 49.597656 116.613281 49.117188 118.414062 48.152344 C 120.214844 47.132812 121.664062 45.65625 122.769531 43.734375 C 123.875 41.808594 124.425781 39.460938 124.425781 36.695312 C 124.425781 33.929688 123.875 31.582031 122.769531 29.65625 C 121.664062 27.734375 120.214844 26.257812 118.414062 25.238281 C 116.613281 24.214844 114.664062 23.703125 112.574219 23.703125 Z M 112.574219 23.703125 " fill-opacity="1" fill-rule="nonzero"/></g><path fill="#0f4018" d="M 154.144531 13.777344 L 154.144531 19.554688 C 155.480469 17.808594 157.078125 16.214844 158.9375 14.773438 C 160.851562 13.328125 163.292969 12.605469 166.253906 12.605469 C 169.335938 12.605469 172.125 13.359375 174.621094 14.863281 C 177.121094 16.304688 179.066406 18.5 180.460938 21.449219 C 182.203125 18.980469 184.234375 16.90625 186.558594 15.222656 C 188.882812 13.476562 191.585938 12.605469 194.664062 12.605469 C 197.625 12.605469 200.328125 13.328125 202.765625 14.773438 C 205.207031 16.15625 207.152344 18.230469 208.605469 20.996094 C 210.117188 23.761719 210.871094 27.222656 210.871094 31.371094 L 210.871094 59.339844 L 199.804688 59.339844 L 199.71875 32.90625 C 199.71875 29.839844 198.933594 27.554688 197.363281 26.050781 C 195.855469 24.546875 193.851562 23.792969 191.351562 23.792969 C 189.433594 23.792969 187.78125 24.425781 186.386719 25.6875 C 184.992188 26.890625 183.683594 28.335938 182.464844 30.019531 L 182.464844 59.339844 L 171.398438 59.339844 L 171.308594 32.90625 C 171.308594 29.839844 170.527344 27.554688 168.957031 26.050781 C 167.445312 24.546875 165.472656 23.792969 163.03125 23.792969 C 161.171875 23.792969 159.515625 24.394531 158.066406 25.597656 C 156.613281 26.742188 155.304688 28.09375 154.144531 29.65625 L 154.144531 59.339844 L 143.078125 59.339844 L 143.078125 13.777344 Z M 154.144531 13.777344 " fill-opacity="1" fill-rule="nonzero"/><g clip-path="url(#b435faada5)"><path fill="#0f4018" d="M 237.367188 12.605469 C 239.746094 12.605469 242.15625 13.175781 244.597656 14.320312 C 247.039062 15.464844 249.070312 16.996094 250.699219 18.921875 L 250.699219 13.777344 L 261.765625 13.777344 L 261.765625 59.339844 L 250.699219 59.339844 L 250.699219 51.671875 C 249.421875 54.136719 247.5625 56.273438 245.121094 58.078125 C 242.679688 59.820312 239.835938 60.695312 236.582031 60.695312 C 233.039062 60.695312 229.753906 59.761719 226.734375 57.898438 C 223.773438 56.03125 221.390625 53.328125 219.589844 49.777344 C 217.789062 46.230469 216.886719 41.929688 216.886719 36.875 C 216.886719 31.824219 217.789062 27.492188 219.589844 23.882812 C 221.449219 20.273438 223.917969 17.507812 226.996094 15.582031 C 230.132812 13.597656 233.589844 12.605469 237.367188 12.605469 Z M 239.632812 23.792969 C 237.308594 23.792969 235.300781 24.425781 233.621094 25.6875 C 231.992188 26.890625 230.714844 28.484375 229.785156 30.46875 C 228.855469 32.453125 228.390625 34.589844 228.390625 36.875 C 228.390625 40.304688 229.378906 43.222656 231.351562 45.628906 C 233.386719 48.03125 236.058594 49.234375 239.371094 49.234375 C 241.34375 49.234375 243.175781 48.695312 244.859375 47.613281 C 246.601562 46.53125 247.996094 45.027344 249.042969 43.101562 C 250.148438 41.117188 250.699219 38.742188 250.699219 35.972656 L 250.699219 29.476562 C 249.128906 27.734375 247.414062 26.351562 245.558594 25.328125 C 243.753906 24.304688 241.78125 23.792969 239.632812 23.792969 Z M 239.632812 23.792969 " fill-opacity="1" fill-rule="nonzero"/></g><g fill="#339d46" fill-opacity="1"><g transform="translate(130.420769, 133.288326)"><g><path d="M 21.4375 0.875 C 18.019531 0.875 14.988281 0.375 12.34375 -0.625 C 9.707031 -1.625 7.554688 -3.070312 5.890625 -4.96875 C 4.234375 -6.863281 3.191406 -9.140625 2.765625 -11.796875 L 13.421875 -13.234375 C 13.910156 -11.316406 14.835938 -9.863281 16.203125 -8.875 C 17.566406 -7.882812 19.382812 -7.390625 21.65625 -7.390625 C 23.8125 -7.390625 25.507812 -7.800781 26.75 -8.625 C 27.988281 -9.445312 28.609375 -10.492188 28.609375 -11.765625 C 28.609375 -12.847656 28.15625 -13.738281 27.25 -14.4375 C 26.351562 -15.132812 25.007812 -15.671875 23.21875 -16.046875 L 15.96875 -17.484375 C 11.925781 -18.316406 8.890625 -19.734375 6.859375 -21.734375 C 4.835938 -23.734375 3.828125 -26.3125 3.828125 -29.46875 C 3.828125 -32.125 4.550781 -34.425781 6 -36.375 C 7.457031 -38.320312 9.507812 -39.828125 12.15625 -40.890625 C 14.800781 -41.953125 17.894531 -42.484375 21.4375 -42.484375 C 24.820312 -42.484375 27.753906 -42.003906 30.234375 -41.046875 C 32.710938 -40.085938 34.703125 -38.722656 36.203125 -36.953125 C 37.710938 -35.179688 38.671875 -33.09375 39.078125 -30.6875 L 28.9375 -29.28125 C 28.582031 -30.769531 27.789062 -31.988281 26.5625 -32.9375 C 25.34375 -33.894531 23.707031 -34.375 21.65625 -34.375 C 19.757812 -34.375 18.195312 -33.972656 16.96875 -33.171875 C 15.75 -32.378906 15.140625 -31.347656 15.140625 -30.078125 C 15.140625 -29.015625 15.554688 -28.125 16.390625 -27.40625 C 17.222656 -26.6875 18.585938 -26.132812 20.484375 -25.75 L 28.078125 -24.234375 C 32.171875 -23.429688 35.207031 -22.09375 37.1875 -20.21875 C 39.175781 -18.34375 40.171875 -15.898438 40.171875 -12.890625 C 40.171875 -10.140625 39.375 -7.734375 37.78125 -5.671875 C 36.1875 -3.609375 33.976562 -2 31.15625 -0.84375 C 28.34375 0.300781 25.101562 0.875 21.4375 0.875 Z M 21.4375 0.875 "/></g></g></g><g fill="#339d46" fill-opacity="1"><g transform="translate(170.987344, 133.288326)"><g><path d="M 16.578125 0.796875 C 13.898438 0.796875 11.5 0.328125 9.375 -0.609375 C 7.25 -1.546875 5.578125 -2.941406 4.359375 -4.796875 C 3.148438 -6.660156 2.546875 -8.96875 2.546875 -11.71875 C 2.546875 -14.070312 2.972656 -16.03125 3.828125 -17.59375 C 4.691406 -19.164062 5.867188 -20.429688 7.359375 -21.390625 C 8.847656 -22.347656 10.546875 -23.070312 12.453125 -23.5625 C 14.367188 -24.0625 16.375 -24.414062 18.46875 -24.625 C 20.925781 -24.875 22.898438 -25.101562 24.390625 -25.3125 C 25.878906 -25.53125 26.960938 -25.867188 27.640625 -26.328125 C 28.328125 -26.785156 28.671875 -27.46875 28.671875 -28.375 L 28.671875 -28.5625 C 28.671875 -29.726562 28.410156 -30.722656 27.890625 -31.546875 C 27.378906 -32.367188 26.628906 -33 25.640625 -33.4375 C 24.648438 -33.882812 23.453125 -34.109375 22.046875 -34.109375 C 20.597656 -34.109375 19.335938 -33.882812 18.265625 -33.4375 C 17.191406 -33 16.316406 -32.40625 15.640625 -31.65625 C 14.972656 -30.90625 14.5 -30.066406 14.21875 -29.140625 L 3.796875 -30.453125 C 4.378906 -32.984375 5.488281 -35.144531 7.125 -36.9375 C 8.769531 -38.738281 10.867188 -40.113281 13.421875 -41.0625 C 15.984375 -42.007812 18.894531 -42.484375 22.15625 -42.484375 C 24.53125 -42.484375 26.785156 -42.203125 28.921875 -41.640625 C 31.054688 -41.085938 32.957031 -40.226562 34.625 -39.0625 C 36.300781 -37.90625 37.613281 -36.4375 38.5625 -34.65625 C 39.507812 -32.875 39.984375 -30.742188 39.984375 -28.265625 L 39.984375 0 L 29.171875 0 L 29.171875 -5.84375 L 28.828125 -5.84375 C 28.148438 -4.53125 27.242188 -3.375 26.109375 -2.375 C 24.984375 -1.375 23.632812 -0.59375 22.0625 -0.03125 C 20.5 0.519531 18.671875 0.796875 16.578125 0.796875 Z M 19.765625 -7.125 C 21.554688 -7.125 23.125 -7.476562 24.46875 -8.1875 C 25.8125 -8.894531 26.859375 -9.84375 27.609375 -11.03125 C 28.367188 -12.226562 28.75 -13.570312 28.75 -15.0625 L 28.75 -19.5 C 28.394531 -19.289062 27.898438 -19.085938 27.265625 -18.890625 C 26.640625 -18.691406 25.921875 -18.515625 25.109375 -18.359375 C 24.296875 -18.203125 23.476562 -18.0625 22.65625 -17.9375 C 21.84375 -17.8125 21.09375 -17.695312 20.40625 -17.59375 C 19.039062 -17.394531 17.828125 -17.070312 16.765625 -16.625 C 15.703125 -16.1875 14.878906 -15.59375 14.296875 -14.84375 C 13.710938 -14.101562 13.421875 -13.175781 13.421875 -12.0625 C 13.421875 -11 13.691406 -10.097656 14.234375 -9.359375 C 14.785156 -8.628906 15.535156 -8.070312 16.484375 -7.6875 C 17.429688 -7.3125 18.523438 -7.125 19.765625 -7.125 Z M 19.765625 -7.125 "/></g></g></g><g fill="#339d46" fill-opacity="1"><g transform="translate(213.336502, 133.288326)"><g><path d="M 28.1875 -41.875 L 28.1875 -33.1875 L 0.71875 -33.1875 L 0.71875 -41.875 Z M 8.15625 0 L 8.15625 -45.5625 C 8.15625 -48.46875 8.726562 -50.878906 9.875 -52.796875 C 11.03125 -54.722656 12.628906 -56.164062 14.671875 -57.125 C 16.722656 -58.082031 19.078125 -58.5625 21.734375 -58.5625 C 23.429688 -58.5625 24.992188 -58.453125 26.421875 -58.234375 C 27.847656 -58.023438 28.878906 -57.832031 29.515625 -57.65625 L 27.921875 -49.046875 C 27.492188 -49.148438 26.929688 -49.25 26.234375 -49.34375 C 25.535156 -49.445312 24.832031 -49.5 24.125 -49.5 C 22.425781 -49.5 21.222656 -49.109375 20.515625 -48.328125 C 19.804688 -47.546875 19.453125 -46.394531 19.453125 -44.875 L 19.453125 0 Z M 8.15625 0 "/></g></g></g><g fill="#339d46" fill-opacity="1"><g transform="translate(240.059229, 133.288326)"><g><path d="M 23.625 0.828125 C 19.351562 0.828125 15.664062 -0.0507812 12.5625 -1.8125 C 9.46875 -3.582031 7.082031 -6.085938 5.40625 -9.328125 C 3.726562 -12.566406 2.890625 -16.375 2.890625 -20.75 C 2.890625 -25.070312 3.722656 -28.859375 5.390625 -32.109375 C 7.054688 -35.359375 9.40625 -37.898438 12.4375 -39.734375 C 15.476562 -41.566406 19.03125 -42.484375 23.09375 -42.484375 C 25.90625 -42.484375 28.507812 -42.023438 30.90625 -41.109375 C 33.3125 -40.203125 35.414062 -38.859375 37.21875 -37.078125 C 39.03125 -35.296875 40.4375 -33.070312 41.4375 -30.40625 C 42.4375 -27.738281 42.9375 -24.660156 42.9375 -21.171875 L 42.9375 -18.015625 L 7.390625 -18.015625 L 7.390625 -25.15625 L 37.4375 -25.15625 L 32.171875 -23.296875 C 32.171875 -25.460938 31.828125 -27.34375 31.140625 -28.9375 C 30.460938 -30.53125 29.457031 -31.765625 28.125 -32.640625 C 26.800781 -33.515625 25.164062 -33.953125 23.21875 -33.953125 C 21.269531 -33.953125 19.613281 -33.507812 18.25 -32.625 C 16.882812 -31.738281 15.835938 -30.523438 15.109375 -28.984375 C 14.390625 -27.441406 14.03125 -25.671875 14.03125 -23.671875 L 14.03125 -18.65625 C 14.03125 -16.3125 14.4375 -14.316406 15.25 -12.671875 C 16.0625 -11.023438 17.207031 -9.773438 18.6875 -8.921875 C 20.164062 -8.078125 21.890625 -7.65625 23.859375 -7.65625 C 25.203125 -7.65625 26.421875 -7.851562 27.515625 -8.25 C 28.617188 -8.644531 29.554688 -9.210938 30.328125 -9.953125 C 31.097656 -10.703125 31.6875 -11.617188 32.09375 -12.703125 L 42.375 -11.234375 C 41.71875 -8.804688 40.535156 -6.6875 38.828125 -4.875 C 37.117188 -3.0625 34.976562 -1.65625 32.40625 -0.65625 C 29.84375 0.332031 26.914062 0.828125 23.625 0.828125 Z M 23.625 0.828125 "/></g></g></g><g fill="#339d46" fill-opacity="1"><g transform="translate(283.470353, 133.288326)"><g><path d="M 26.140625 -41.875 L 26.140625 -33.1875 L 0.71875 -33.1875 L 0.71875 -41.875 Z M 6.828125 -52.15625 L 18.125 -52.15625 L 18.125 -12.40625 C 18.125 -11.0625 18.421875 -10.078125 19.015625 -9.453125 C 19.617188 -8.835938 20.613281 -8.53125 22 -8.53125 C 22.507812 -8.53125 23.160156 -8.570312 23.953125 -8.65625 C 24.753906 -8.75 25.367188 -8.835938 25.796875 -8.921875 L 27.046875 -0.296875 C 25.910156 -0.0234375 24.722656 0.164062 23.484375 0.28125 C 22.242188 0.394531 21.039062 0.453125 19.875 0.453125 C 15.570312 0.453125 12.320312 -0.535156 10.125 -2.515625 C 7.925781 -4.503906 6.828125 -7.410156 6.828125 -11.234375 Z M 6.828125 -52.15625 "/></g></g></g><g fill="#339d46" fill-opacity="1"><g transform="translate(311.445499, 133.288326)"><g><path d="M 4.625 15.21875 L 6.671875 6.5625 L 8.875 6.859375 C 10.269531 7.171875 11.488281 7.222656 12.53125 7.015625 C 13.582031 6.816406 14.429688 6.34375 15.078125 5.59375 C 15.722656 4.84375 16.144531 3.8125 16.34375 2.5 L 16.84375 0.078125 L 1.03125 -41.875 L 13.015625 -41.875 L 20.0625 -20.375 C 20.925781 -17.6875 21.640625 -14.992188 22.203125 -12.296875 C 22.773438 -9.609375 23.40625 -6.820312 24.09375 -3.9375 L 21.359375 -3.9375 C 22.035156 -6.820312 22.710938 -9.617188 23.390625 -12.328125 C 24.078125 -15.035156 24.851562 -17.71875 25.71875 -20.375 L 33.046875 -41.875 L 44.90625 -41.875 L 26.96875 5.265625 C 26.113281 7.523438 25.035156 9.460938 23.734375 11.078125 C 22.429688 12.691406 20.828125 13.925781 18.921875 14.78125 C 17.023438 15.644531 14.738281 16.078125 12.0625 16.078125 C 10.625 16.078125 9.253906 15.992188 7.953125 15.828125 C 6.648438 15.671875 5.539062 15.46875 4.625 15.21875 Z M 4.625 15.21875 "/></g></g></g></g></g></svg>