<svg xmlns="http://www.w3.org/2000/svg" xmlns:xlink="http://www.w3.org/1999/xlink" width="500" zoomAndPan="magnify" viewBox="0 0 375 374.999991" height="500" preserveAspectRatio="xMidYMid meet" version="1.0"><defs><clipPath id="c08345dd38"><path d="M 35 166 L 88 166 L 88 222.203125 L 35 222.203125 Z M 35 166 " clip-rule="nonzero"/></clipPath><clipPath id="5e91293b65"><path d="M 95 152.453125 L 133 152.453125 L 133 222.203125 L 95 222.203125 Z M 95 152.453125 " clip-rule="nonzero"/></clipPath><clipPath id="2f03384795"><path d="M 137 166 L 193 166 L 193 222.203125 L 137 222.203125 Z M 137 166 " clip-rule="nonzero"/></clipPath><clipPath id="f800168dc1"><path d="M 287 166 L 340 166 L 340 222.203125 L 287 222.203125 Z M 287 166 " clip-rule="nonzero"/></clipPath></defs><g clip-path="url(#c08345dd38)"><path fill="#0f4018" d="M 59.136719 166.464844 C 61.925781 166.464844 64.742188 167.128906 67.597656 168.453125 C 70.453125 169.777344 72.828125 171.554688 74.730469 173.785156 L 74.730469 167.824219 L 87.675781 167.824219 L 87.675781 220.636719 L 74.730469 220.636719 L 74.730469 211.746094 C 73.238281 214.605469 71.0625 217.078125 68.210938 219.171875 C 65.355469 221.191406 62.027344 222.203125 58.21875 222.203125 C 54.074219 222.203125 50.238281 221.121094 46.703125 218.960938 C 43.238281 216.800781 40.453125 213.664062 38.34375 209.550781 C 36.238281 205.4375 35.1875 200.453125 35.1875 194.597656 C 35.1875 188.738281 36.238281 183.722656 38.34375 179.539062 C 40.519531 175.355469 43.40625 172.148438 47.007812 169.917969 C 50.679688 167.617188 54.722656 166.464844 59.136719 166.464844 Z M 61.789062 179.433594 C 59.070312 179.433594 56.726562 180.164062 54.753906 181.628906 C 52.851562 183.023438 51.359375 184.871094 50.269531 187.171875 C 49.183594 189.472656 48.640625 191.945312 48.640625 194.597656 C 48.640625 198.570312 49.792969 201.953125 52.105469 204.738281 C 54.484375 207.527344 57.609375 208.921875 61.480469 208.921875 C 63.792969 208.921875 65.933594 208.296875 67.902344 207.039062 C 69.941406 205.785156 71.574219 204.042969 72.796875 201.8125 C 74.085938 199.511719 74.730469 196.757812 74.730469 193.550781 L 74.730469 186.019531 C 72.898438 184 70.894531 182.394531 68.71875 181.210938 C 66.613281 180.027344 64.300781 179.433594 61.789062 179.433594 Z M 61.789062 179.433594 " fill-opacity="1" fill-rule="nonzero"/></g><g clip-path="url(#5e91293b65)"><path fill="#0f4018" d="M 118.054688 152.453125 L 118.054688 167.824219 L 132.324219 167.824219 L 132.324219 178.910156 L 118.054688 178.910156 L 118.054688 201.707031 C 118.054688 204.078125 118.5625 205.960938 119.582031 207.355469 C 120.671875 208.679688 122.265625 209.339844 124.375 209.339844 C 126.207031 209.339844 127.769531 209.132812 129.0625 208.714844 C 130.421875 208.296875 131.679688 207.703125 132.832031 206.9375 L 132.832031 217.496094 C 131.542969 218.824219 129.910156 219.9375 127.941406 220.84375 C 126.039062 221.75 123.625 222.203125 120.703125 222.203125 C 116.082031 222.203125 112.3125 220.703125 109.390625 217.707031 C 106.535156 214.640625 105.109375 210.457031 105.109375 205.160156 L 105.109375 178.910156 L 95.835938 178.910156 L 95.835938 172.113281 C 99.097656 170.929688 102.085938 168.695312 104.804688 165.421875 C 107.589844 162.144531 109.796875 157.820312 111.429688 152.453125 Z M 118.054688 152.453125 " fill-opacity="1" fill-rule="nonzero"/></g><g clip-path="url(#2f03384795)"><path fill="#0f4018" d="M 165.351562 166.464844 C 170.378906 166.464844 174.964844 167.722656 179.109375 170.230469 C 183.257812 172.671875 186.585938 176.015625 189.097656 180.269531 C 191.679688 184.453125 192.972656 189.160156 192.972656 194.386719 C 192.972656 199.617188 191.679688 204.320312 189.097656 208.503906 C 186.585938 212.6875 183.257812 216.035156 179.109375 218.542969 C 174.964844 220.984375 170.378906 222.203125 165.351562 222.203125 C 160.390625 222.203125 155.804688 220.984375 151.589844 218.542969 C 147.445312 216.035156 144.117188 212.6875 141.601562 208.503906 C 139.089844 204.320312 137.832031 199.617188 137.832031 194.386719 C 137.832031 189.160156 139.089844 184.453125 141.601562 180.269531 C 144.117188 176.015625 147.445312 172.671875 151.589844 170.230469 C 155.804688 167.722656 160.390625 166.464844 165.351562 166.464844 Z M 165.351562 179.328125 C 162.90625 179.328125 160.628906 179.921875 158.523438 181.105469 C 156.414062 182.292969 154.71875 184 153.425781 186.230469 C 152.203125 188.460938 151.589844 191.179688 151.589844 194.386719 C 151.589844 197.59375 152.203125 200.3125 153.425781 202.542969 C 154.71875 204.773438 156.414062 206.484375 158.523438 207.667969 C 160.628906 208.785156 162.90625 209.339844 165.351562 209.339844 C 167.796875 209.339844 170.074219 208.785156 172.179688 207.667969 C 174.285156 206.484375 175.984375 204.773438 177.277344 202.542969 C 178.566406 200.3125 179.210938 197.59375 179.210938 194.386719 C 179.210938 191.179688 178.566406 188.460938 177.277344 186.230469 C 175.984375 184 174.285156 182.292969 172.179688 181.105469 C 170.074219 179.921875 167.796875 179.328125 165.351562 179.328125 Z M 165.351562 179.328125 " fill-opacity="1" fill-rule="nonzero"/></g><path fill="#0f4018" d="M 213.972656 167.824219 L 213.972656 174.519531 C 215.535156 172.496094 217.40625 170.648438 219.578125 168.976562 C 221.820312 167.304688 224.675781 166.464844 228.140625 166.464844 C 231.742188 166.464844 235.003906 167.335938 237.925781 169.082031 C 240.847656 170.753906 243.125 173.296875 244.753906 176.714844 C 246.792969 173.855469 249.171875 171.449219 251.890625 169.5 C 254.605469 167.476562 257.765625 166.464844 261.367188 166.464844 C 264.832031 166.464844 267.992188 167.304688 270.847656 168.976562 C 273.699219 170.578125 275.976562 172.984375 277.675781 176.191406 C 279.441406 179.398438 280.324219 183.40625 280.324219 188.21875 L 280.324219 220.636719 L 267.382812 220.636719 L 267.28125 189.996094 C 267.28125 186.441406 266.363281 183.789062 264.527344 182.046875 C 262.761719 180.304688 260.417969 179.433594 257.496094 179.433594 C 255.253906 179.433594 253.316406 180.164062 251.683594 181.628906 C 250.054688 183.023438 248.527344 184.695312 247.097656 186.648438 L 247.097656 220.636719 L 234.152344 220.636719 L 234.050781 189.996094 C 234.050781 186.441406 233.136719 183.789062 231.300781 182.046875 C 229.535156 180.304688 227.222656 179.433594 224.371094 179.433594 C 222.195312 179.433594 220.257812 180.128906 218.558594 181.523438 C 216.859375 182.847656 215.332031 184.417969 213.972656 186.230469 L 213.972656 220.636719 L 201.027344 220.636719 L 201.027344 167.824219 Z M 213.972656 167.824219 " fill-opacity="1" fill-rule="nonzero"/><g clip-path="url(#f800168dc1)"><path fill="#0f4018" d="M 311.316406 166.464844 C 314.101562 166.464844 316.917969 167.128906 319.773438 168.453125 C 322.628906 169.777344 325.003906 171.554688 326.910156 173.785156 L 326.910156 167.824219 L 339.855469 167.824219 L 339.855469 220.636719 L 326.910156 220.636719 L 326.910156 211.746094 C 325.414062 214.605469 323.238281 217.078125 320.386719 219.171875 C 317.53125 221.191406 314.203125 222.203125 310.398438 222.203125 C 306.253906 222.203125 302.414062 221.121094 298.878906 218.960938 C 295.414062 216.800781 292.628906 213.664062 290.523438 209.550781 C 288.414062 205.4375 287.363281 200.453125 287.363281 194.597656 C 287.363281 188.738281 288.414062 183.722656 290.523438 179.539062 C 292.695312 175.355469 295.585938 172.148438 299.1875 169.917969 C 302.855469 167.617188 306.898438 166.464844 311.316406 166.464844 Z M 313.964844 179.433594 C 311.246094 179.433594 308.902344 180.164062 306.933594 181.628906 C 305.03125 183.023438 303.535156 184.871094 302.449219 187.171875 C 301.359375 189.472656 300.816406 191.945312 300.816406 194.597656 C 300.816406 198.570312 301.972656 201.953125 304.28125 204.738281 C 306.660156 207.527344 309.785156 208.921875 313.660156 208.921875 C 315.96875 208.921875 318.109375 208.296875 320.078125 207.039062 C 322.117188 205.785156 323.75 204.042969 324.972656 201.8125 C 326.265625 199.511719 326.910156 196.757812 326.910156 193.550781 L 326.910156 186.019531 C 325.074219 184 323.070312 182.394531 320.898438 181.210938 C 318.789062 180.027344 316.476562 179.433594 313.964844 179.433594 Z M 313.964844 179.433594 " fill-opacity="1" fill-rule="nonzero"/></g></svg>